<?xml version="1.0" encoding="UTF-8" standalone="no"?>
<!-- Created with Inkscape (http://www.inkscape.org/) -->

<svg
   width="1214.1566mm"
   height="645.34015mm"
   viewBox="0 0 1214.1566 645.34015"
   version="1.1"
   id="svg1"
   inkscape:version="1.3 (0e150ed, 2023-07-21)"
   sodipodi:docname="no-image.svg"
   inkscape:export-filename="no-image.webp"
   inkscape:export-xdpi="96"
   inkscape:export-ydpi="96"
   xmlns:inkscape="http://www.inkscape.org/namespaces/inkscape"
   xmlns:sodipodi="http://sodipodi.sourceforge.net/DTD/sodipodi-0.dtd"
   xmlns="http://www.w3.org/2000/svg"
   xmlns:svg="http://www.w3.org/2000/svg">
  <sodipodi:namedview
     id="namedview1"
     pagecolor="#ffffff"
     bordercolor="#000000"
     borderopacity="0.25"
     inkscape:showpageshadow="2"
     inkscape:pageopacity="0.0"
     inkscape:pagecheckerboard="0"
     inkscape:deskcolor="#d1d1d1"
     inkscape:document-units="px"
     inkscape:zoom="0.1758328"
     inkscape:cx="2547.875"
     inkscape:cy="1054.9795"
     inkscape:window-width="2560"
     inkscape:window-height="1412"
     inkscape:window-x="0"
     inkscape:window-y="0"
     inkscape:window-maximized="1"
     inkscape:current-layer="layer1"
     showgrid="false" />
  <defs
     id="defs1" />
  <g
     inkscape:label="Layer 1"
     inkscape:groupmode="layer"
     id="layer1"
     transform="translate(3.8538242,6.4230408)">
    <ellipse
       style="fill:#3da5ff;fill-opacity:1;stroke-width:0.527644;stroke-dasharray:none"
       id="path6"
       cx="608.34241"
       cy="316.88596"
       rx="348.47198"
       ry="255.98018" />
    <ellipse
       style="fill:#59aeff;fill-opacity:1;stroke-width:0.526815"
       id="path6-7"
       inkscape:label="path6-7"
       cy="316.88596"
       cx="608.34241"
       rx="325.24048"
       ry="238.91484" />
    <ellipse
       style="fill:#68c2ff;fill-opacity:1;stroke-width:0.526815"
       id="path6-7-9"
       inkscape:label="path6-7"
       cy="316.88596"
       cx="608.34241"
       rx="302.00903"
       ry="221.84949" />
    <g
       id="g12"
       transform="matrix(2.3344107,0,0,1.7063667,266.96939,60.931644)"
       style="stroke:#5694c7;stroke-width:2.1">
      <g
         id="text6"
         transform="matrix(0.78647382,0,0,1.3439494,-59.7963,87.19808)">
        <path
           style="color:#000000;-inkscape-font-specification:'Arial Black, Normal';fill:#ffffff;stroke:none;-inkscape-stroke:none"
           d="m 106.47912,11.985979 28.42395,-9.5041136 5.62875,50.8264906 19.81875,-46.7188719 23.38664,-4.1076187 19.46615,58.8001036 3.56427,-58.8001036 29.10688,4.8324926 -22.77653,83.551273 h -26.76834 l -14.2556,-53.713808 -16.67269,53.713808 h -26.76834 z m 127.05133,34.023184 c 0,-14.429182 6.49664,-24.93817 14.53519,-32.976712 8.03854,-8.0385414 18.9047,-10.433674 33.25349,-10.433674 14.71053,0 26.37239,2.3348436 34.33054,10.252807 7.95816,7.877771 14.82751,20.863763 14.82751,35.091982 0,10.329526 -4.63865,16.87719 -8.13542,23.508987 -3.45657,6.591604 -6.00329,12.461145 -12.5949,16.158874 -6.55141,3.657537 -15.14351,3.794932 -24.95053,3.794932 -9.96779,0 -22.35636,-1.104362 -28.90777,-4.279586 -6.51122,-3.175224 -9.73208,-7.716064 -13.79154,-14.589017 -4.05947,-6.872953 -8.56657,-16.199067 -8.56657,-26.528593 z m 24.42068,1.328701 c 0,8.922781 3.71238,17.024891 7.00818,20.923584 3.33599,3.898693 11.16083,3.673417 16.8682,3.673417 5.86813,0 14.53886,0.02384 17.75428,-3.794463 3.21541,-3.818307 6.4747,-12.362536 6.4747,-22.249943 0,-8.319891 -7.46862,-14.630615 -10.84481,-18.448922 -3.33599,-3.8585 -7.87777,-3.854753 -13.62533,-3.854753 -5.5064,0 -9.9276,0.01635 -13.26359,3.915042 -3.33599,3.898693 -10.37163,10.832871 -10.37163,19.836038 z m 66.4256,-44.614374 83.73555,2.6715417 9.24505,14.7515293 -53.27367,55.835634 55.08234,-4.107619 v 18.991055 h -83.86208 l -3.30316,-18.811124 52.31817,-50.702165 -49.61982,2.657871 z"
           id="path16" />
        <path
           style="color:#000000;-inkscape-font-specification:'Arial Black, Normal';fill:#5694c7;stroke:none;-inkscape-stroke:none"
           d="m 135.7793,1.1113281 -33.90744,9.9325139 -0.005,0.02197 18.8684,83.854807 35.4191,-3.033897 15.84179,-51.041016 4.70502,54.219384 37.1778,-3.178368 L 237.1582,6.4921875 202.30576,1.3088987 202.50586,55.919922 184.42969,1.3242187 149.72911,7.1244004 141.11719,49.314453 Z M 281.31836,1.578125 c -14.46243,0 -25.6824,2.4402135 -33.97461,10.732422 -8.1587,8.158688 -18.21543,20.835118 -18.21543,35.570843 0,10.6266 -0.16365,22.09921 3.93322,29.035476 4.07958,6.907021 2.36625,7.189788 9.103,10.47499 l -0.0733,-0.04043 c 6.92249,3.355071 16.87392,5.920383 26.91713,5.920383 9.81655,0 34.36199,-0.930437 41.23574,-4.767925 l 0.002,-0.002 c 6.89536,-3.868122 9.56382,-10.01937 13,-16.572266 v -0.002 c 3.45227,-6.547051 8.25196,-13.349886 8.25196,-23.984375 0,-14.556324 -6.98122,-27.750495 -15.12891,-35.816406 C 308.12852,3.9279438 296.13694,1.578125 281.31836,1.578125 Z m 41.40234,0.070312 -4.05442,1.9502186 12.75484,25.6500504 50.22536,-6.729175 -55.30684,54.259683 3.0668,18.354305 90.78106,-3.2468 V 70.773437 l -53.53125,3.992188 51.98828,-54.488281 -9.95508,-15.886719 z m -41.40234,1.9707031 c 14.60245,0 25.93567,2.3201297 33.61133,9.9570319 l 0.002,0.002 c 7.76818,7.689705 14.52344,20.465751 14.52344,34.365233 0,10.023761 -4.47637,16.317119 -8.01758,23.033204 v 0.002 C 317.961,77.60832 315.5354,83.193776 309.2481,86.720795 v -0.002 c -6.22906,3.477574 -14.6537,3.666015 -24.45118,3.666015 -9.89132,0 -22.27997,-1.181096 -28.46093,-4.175782 l -0.002,-0.002 c -6.28392,-3.065155 -9.31864,-7.351522 -13.35742,-14.189454 -4.02206,-6.809625 -8.42578,-15.975382 -8.42578,-26.007812 0,-14.122611 6.31794,-24.337479 14.23633,-32.255859 7.78486,-7.7848586 18.29613,-10.1347659 32.53125,-10.1347659 z M 183.04492,3.640625 202.23437,61.603516 204.22266,61.34375 207.71875,3.6757813 234.5918,8.1367188 212.31836,89.84375 H 187.11523 L 172.15039,33.458984 154.64844,89.84375 H 129.40625 L 107.72656,12.646484 134.02734,3.8515625 139.94727,57.302734 161.07422,7.5 Z m 142.98828,0.1582031 81.50196,2.5996094 8.53515,13.6171875 -54.55859,57.181641 56.63281,-4.222657 V 89.84375 H 336.16211 L 333.09961,72.410156 386.99023,20.1875 335.32227,22.953125 Z M 281.58594,22.566406 c -2.75421,0 -5.29852,-0.0068 -7.66602,0.519531 -2.3675,0.526304 -4.56061,1.633802 -6.37305,3.751954 -3.26373,3.814248 -10.61718,10.964768 -10.61718,20.5 0,9.206052 3.74794,17.439349 7.25,21.582031 l 0.002,0.0039 0.002,0.002 c 1.93077,2.256441 4.97976,3.199646 8.17969,3.646485 3.19993,0.446838 6.6246,0.384765 9.46484,0.384765 2.93268,0 6.60759,0.0097 10.01563,-0.476562 3.40804,-0.486298 6.6198,-1.42571 8.51953,-3.681641 3.47991,-4.1324 6.71485,-12.796364 6.71484,-22.908203 0,-8.925631 -7.83913,-15.439252 -11.09375,-19.117188 l -0.002,-0.002 c -1.81772,-2.101375 -4.04345,-3.189431 -6.4668,-3.703125 -2.4242,-0.513875 -5.05613,-0.501953 -7.92968,-0.501953 z m 1.161,2.690047 c 2.874,0 8.00813,5.812817 10.1257,6.261691 2.11756,0.448875 -8.43587,-8.500144 -6.91796,-6.744486 l -1.5694,0.786876 5.47557,3.686606 c 3.50138,3.959895 10.00286,11.859208 10.00286,19.567886 0,9.662955 1.88816,15.163178 -1.06275,18.667384 -1.31568,1.562368 -4.04788,2.520205 -7.24609,2.976562 -3.19821,0.456357 -6.79112,0.455079 -9.72657,0.455078 -2.86711,0 -6.21026,0.04996 -9.18359,-0.365234 -2.9703,-0.414773 -5.49822,-1.30821 -6.9043,-2.947266 -3.08953,-3.654696 -6.55015,-11.552257 -6.55015,-20.191749 0,-8.471084 4.55998,-14.4633 7.96822,-18.446429 1.52355,-1.780536 -1.73088,0.440227 0.32282,-0.01632 2.05369,-0.456543 8.55059,-3.46865 11.30278,-3.46865 z"
           id="path17"
           sodipodi:nodetypes="cccccccccccccccssssccsccccscsccccccccccccssssccccsccsssssccccccccccccccccccccccccccsssscccsssssccssscscccssssscssscc" />
      </g>
    </g>
  </g>
</svg>
